<svg xmlns="http://www.w3.org/2000/svg" xmlns:xlink="http://www.w3.org/1999/xlink" width="512" zoomAndPan="magnify" viewBox="0 0 384 383.999986" height="512" preserveAspectRatio="xMidYMid meet" version="1.0"><defs><g/><clipPath id="6bbd36abac"><path d="M 13.300781 161 L 64 161 L 64 212 L 13.300781 212 Z M 13.300781 161 " clip-rule="nonzero"/></clipPath><clipPath id="a44412e3f1"><path d="M 172 13.476562 L 223 13.476562 L 223 64 L 172 64 Z M 172 13.476562 " clip-rule="nonzero"/></clipPath><clipPath id="eedad69aa7"><path d="M 161 320 L 212 320 L 212 370.476562 L 161 370.476562 Z M 161 320 " clip-rule="nonzero"/></clipPath><clipPath id="981b25ebdb"><rect x="0" width="172" y="0" height="132"/></clipPath></defs><rect x="-38.4" width="460.8" fill="#ffffff" y="-38.399999" height="460.799983" fill-opacity="1"/><rect x="-38.4" width="460.8" fill="#ffffff" y="-38.399999" height="460.799983" fill-opacity="1"/><path fill="#38b6ff" d="M 112.246094 79.421875 C 112.246094 80.242188 112.207031 81.058594 112.125 81.875 C 112.046875 82.6875 111.925781 83.496094 111.765625 84.300781 C 111.605469 85.105469 111.40625 85.898438 111.167969 86.683594 C 110.929688 87.464844 110.65625 88.238281 110.34375 88.992188 C 110.027344 89.75 109.679688 90.492188 109.292969 91.210938 C 108.90625 91.933594 108.484375 92.636719 108.03125 93.316406 C 107.574219 94 107.089844 94.65625 106.570312 95.289062 C 106.050781 95.921875 105.5 96.53125 104.921875 97.109375 C 104.339844 97.6875 103.734375 98.238281 103.101562 98.757812 C 102.46875 99.277344 101.8125 99.765625 101.128906 100.21875 C 100.449219 100.675781 99.746094 101.09375 99.023438 101.480469 C 98.300781 101.867188 97.5625 102.21875 96.804688 102.53125 C 96.046875 102.84375 95.277344 103.121094 94.492188 103.359375 C 93.710938 103.59375 92.917969 103.792969 92.113281 103.953125 C 91.308594 104.113281 90.5 104.234375 89.683594 104.3125 C 88.871094 104.394531 88.050781 104.433594 87.234375 104.433594 C 86.414062 104.433594 85.597656 104.394531 84.78125 104.3125 C 83.964844 104.234375 83.15625 104.113281 82.351562 103.953125 C 81.550781 103.792969 80.757812 103.59375 79.972656 103.359375 C 79.1875 103.121094 78.417969 102.84375 77.660156 102.53125 C 76.902344 102.21875 76.164062 101.867188 75.441406 101.480469 C 74.71875 101.09375 74.019531 100.675781 73.335938 100.21875 C 72.65625 99.765625 72 99.277344 71.363281 98.757812 C 70.730469 98.238281 70.125 97.6875 69.546875 97.109375 C 68.96875 96.53125 68.417969 95.921875 67.898438 95.289062 C 67.378906 94.65625 66.890625 94 66.433594 93.316406 C 65.980469 92.636719 65.558594 91.933594 65.171875 91.210938 C 64.789062 90.492188 64.4375 89.75 64.125 88.992188 C 63.808594 88.238281 63.535156 87.464844 63.296875 86.683594 C 63.058594 85.898438 62.859375 85.105469 62.699219 84.300781 C 62.539062 83.496094 62.421875 82.6875 62.339844 81.875 C 62.261719 81.058594 62.21875 80.242188 62.21875 79.421875 C 62.21875 78.601562 62.261719 77.785156 62.339844 76.96875 C 62.421875 76.15625 62.539062 75.34375 62.699219 74.542969 C 62.859375 73.738281 63.058594 72.945312 63.296875 72.160156 C 63.535156 71.375 63.808594 70.605469 64.125 69.847656 C 64.4375 69.09375 64.789062 68.351562 65.171875 67.628906 C 65.558594 66.90625 65.980469 66.207031 66.433594 65.523438 C 66.890625 64.84375 67.378906 64.1875 67.898438 63.554688 C 68.417969 62.921875 68.96875 62.3125 69.546875 61.734375 C 70.125 61.15625 70.730469 60.605469 71.363281 60.085938 C 72 59.566406 72.65625 59.078125 73.335938 58.625 C 74.019531 58.167969 74.71875 57.75 75.441406 57.363281 C 76.164062 56.976562 76.902344 56.625 77.660156 56.3125 C 78.417969 56 79.1875 55.722656 79.972656 55.484375 C 80.757812 55.246094 81.550781 55.050781 82.351562 54.890625 C 83.15625 54.730469 83.964844 54.609375 84.78125 54.527344 C 85.597656 54.449219 86.414062 54.410156 87.234375 54.410156 C 88.050781 54.410156 88.871094 54.449219 89.683594 54.527344 C 90.5 54.609375 91.308594 54.730469 92.113281 54.890625 C 92.917969 55.050781 93.710938 55.246094 94.492188 55.484375 C 95.277344 55.722656 96.046875 56 96.804688 56.3125 C 97.5625 56.625 98.300781 56.976562 99.023438 57.363281 C 99.746094 57.75 100.449219 58.167969 101.128906 58.625 C 101.8125 59.078125 102.46875 59.566406 103.101562 60.085938 C 103.734375 60.605469 104.339844 61.15625 104.921875 61.734375 C 105.5 62.3125 106.050781 62.921875 106.570312 63.554688 C 107.089844 64.1875 107.574219 64.84375 108.03125 65.523438 C 108.484375 66.207031 108.90625 66.90625 109.292969 67.628906 C 109.679688 68.351562 110.027344 69.09375 110.34375 69.847656 C 110.65625 70.605469 110.929688 71.375 111.167969 72.160156 C 111.40625 72.945312 111.605469 73.738281 111.765625 74.542969 C 111.925781 75.34375 112.046875 76.15625 112.125 76.96875 C 112.207031 77.785156 112.246094 78.601562 112.246094 79.421875 Z M 112.246094 79.421875 " fill-opacity="1" fill-rule="nonzero"/><g clip-path="url(#6bbd36abac)"><path fill="#0066cc" d="M 63.328125 186.484375 C 63.328125 187.300781 63.289062 188.117188 63.207031 188.933594 C 63.128906 189.75 63.007812 190.558594 62.847656 191.363281 C 62.6875 192.164062 62.488281 192.960938 62.25 193.742188 C 62.011719 194.527344 61.738281 195.296875 61.425781 196.054688 C 61.109375 196.8125 60.761719 197.550781 60.375 198.273438 C 59.988281 198.996094 59.566406 199.699219 59.113281 200.378906 C 58.65625 201.058594 58.167969 201.71875 57.648438 202.351562 C 57.128906 202.984375 56.582031 203.589844 56 204.167969 C 55.421875 204.75 54.816406 205.296875 54.183594 205.816406 C 53.550781 206.335938 52.890625 206.824219 52.210938 207.28125 C 51.53125 207.734375 50.828125 208.15625 50.105469 208.542969 C 49.382812 208.929688 48.644531 209.277344 47.886719 209.589844 C 47.128906 209.90625 46.359375 210.179688 45.574219 210.417969 C 44.792969 210.65625 43.996094 210.855469 43.195312 211.015625 C 42.390625 211.175781 41.582031 211.296875 40.765625 211.375 C 39.953125 211.457031 39.132812 211.496094 38.316406 211.496094 C 37.496094 211.496094 36.679688 211.457031 35.863281 211.375 C 35.046875 211.296875 34.238281 211.175781 33.433594 211.015625 C 32.632812 210.855469 31.835938 210.65625 31.054688 210.417969 C 30.269531 210.179688 29.5 209.90625 28.742188 209.589844 C 27.984375 209.277344 27.246094 208.929688 26.523438 208.542969 C 25.800781 208.15625 25.097656 207.734375 24.417969 207.28125 C 23.738281 206.824219 23.078125 206.335938 22.445312 205.816406 C 21.8125 205.296875 21.207031 204.75 20.628906 204.167969 C 20.046875 203.589844 19.5 202.984375 18.980469 202.351562 C 18.460938 201.71875 17.972656 201.058594 17.515625 200.378906 C 17.0625 199.699219 16.640625 198.996094 16.253906 198.273438 C 15.867188 197.550781 15.519531 196.8125 15.207031 196.054688 C 14.890625 195.296875 14.617188 194.527344 14.378906 193.742188 C 14.140625 192.960938 13.941406 192.164062 13.78125 191.363281 C 13.621094 190.558594 13.503906 189.75 13.421875 188.933594 C 13.339844 188.117188 13.300781 187.300781 13.300781 186.484375 C 13.300781 185.664062 13.339844 184.847656 13.421875 184.03125 C 13.503906 183.214844 13.621094 182.40625 13.78125 181.601562 C 13.941406 180.800781 14.140625 180.003906 14.378906 179.222656 C 14.617188 178.4375 14.890625 177.667969 15.207031 176.910156 C 15.519531 176.152344 15.867188 175.414062 16.253906 174.691406 C 16.640625 173.96875 17.0625 173.265625 17.515625 172.585938 C 17.972656 171.90625 18.460938 171.246094 18.980469 170.613281 C 19.5 169.980469 20.046875 169.375 20.628906 168.796875 C 21.207031 168.214844 21.8125 167.667969 22.445312 167.148438 C 23.078125 166.628906 23.738281 166.140625 24.417969 165.683594 C 25.097656 165.230469 25.800781 164.808594 26.523438 164.421875 C 27.246094 164.035156 27.984375 163.6875 28.742188 163.375 C 29.5 163.058594 30.269531 162.785156 31.054688 162.546875 C 31.835938 162.308594 32.632812 162.109375 33.433594 161.949219 C 34.238281 161.789062 35.046875 161.671875 35.863281 161.589844 C 36.679688 161.507812 37.496094 161.46875 38.316406 161.46875 C 39.132812 161.46875 39.953125 161.507812 40.765625 161.589844 C 41.582031 161.671875 42.390625 161.789062 43.195312 161.949219 C 43.996094 162.109375 44.792969 162.308594 45.574219 162.546875 C 46.359375 162.785156 47.128906 163.058594 47.886719 163.375 C 48.644531 163.6875 49.382812 164.035156 50.105469 164.421875 C 50.828125 164.808594 51.53125 165.230469 52.210938 165.683594 C 52.890625 166.140625 53.550781 166.628906 54.183594 167.148438 C 54.816406 167.667969 55.421875 168.214844 56 168.796875 C 56.582031 169.375 57.128906 169.980469 57.648438 170.613281 C 58.167969 171.246094 58.65625 171.90625 59.113281 172.585938 C 59.566406 173.265625 59.988281 173.96875 60.375 174.691406 C 60.761719 175.414062 61.109375 176.152344 61.425781 176.910156 C 61.738281 177.667969 62.011719 178.4375 62.25 179.222656 C 62.488281 180.003906 62.6875 180.800781 62.847656 181.601562 C 63.007812 182.40625 63.128906 183.214844 63.207031 184.03125 C 63.289062 184.847656 63.328125 185.664062 63.328125 186.484375 Z M 63.328125 186.484375 " fill-opacity="1" fill-rule="nonzero"/></g><g clip-path="url(#a44412e3f1)"><path fill="#0066cc" d="M 222.519531 38.316406 C 222.519531 39.132812 222.480469 39.953125 222.398438 40.765625 C 222.320312 41.582031 222.199219 42.390625 222.039062 43.195312 C 221.878906 43.996094 221.679688 44.792969 221.441406 45.574219 C 221.207031 46.359375 220.929688 47.128906 220.617188 47.886719 C 220.304688 48.644531 219.953125 49.382812 219.566406 50.105469 C 219.179688 50.828125 218.761719 51.53125 218.304688 52.210938 C 217.851562 52.890625 217.363281 53.550781 216.84375 54.183594 C 216.324219 54.816406 215.773438 55.421875 215.195312 56 C 214.613281 56.582031 214.007812 57.128906 213.375 57.648438 C 212.742188 58.167969 212.085938 58.65625 211.402344 59.113281 C 210.722656 59.566406 210.019531 59.988281 209.296875 60.375 C 208.574219 60.761719 207.835938 61.109375 207.078125 61.425781 C 206.324219 61.738281 205.550781 62.011719 204.769531 62.25 C 203.984375 62.488281 203.191406 62.6875 202.386719 62.847656 C 201.582031 63.007812 200.773438 63.128906 199.957031 63.207031 C 199.144531 63.289062 198.328125 63.328125 197.507812 63.328125 C 196.6875 63.328125 195.871094 63.289062 195.054688 63.207031 C 194.238281 63.128906 193.429688 63.007812 192.628906 62.847656 C 191.824219 62.6875 191.03125 62.488281 190.246094 62.25 C 189.460938 62.011719 188.691406 61.738281 187.933594 61.425781 C 187.179688 61.109375 186.4375 60.761719 185.714844 60.375 C 184.992188 59.988281 184.292969 59.566406 183.609375 59.113281 C 182.929688 58.65625 182.273438 58.167969 181.640625 57.648438 C 181.003906 57.128906 180.398438 56.582031 179.820312 56 C 179.242188 55.421875 178.691406 54.816406 178.171875 54.183594 C 177.652344 53.550781 177.164062 52.890625 176.710938 52.210938 C 176.253906 51.53125 175.832031 50.828125 175.449219 50.105469 C 175.0625 49.382812 174.710938 48.644531 174.398438 47.886719 C 174.085938 47.128906 173.808594 46.359375 173.570312 45.574219 C 173.332031 44.792969 173.132812 43.996094 172.976562 43.195312 C 172.816406 42.390625 172.695312 41.582031 172.613281 40.765625 C 172.535156 39.953125 172.492188 39.132812 172.492188 38.316406 C 172.492188 37.496094 172.535156 36.679688 172.613281 35.863281 C 172.695312 35.046875 172.816406 34.238281 172.976562 33.433594 C 173.132812 32.632812 173.332031 31.835938 173.570312 31.054688 C 173.808594 30.269531 174.085938 29.5 174.398438 28.742188 C 174.710938 27.984375 175.0625 27.246094 175.449219 26.523438 C 175.832031 25.800781 176.253906 25.097656 176.710938 24.417969 C 177.164062 23.738281 177.652344 23.078125 178.171875 22.445312 C 178.691406 21.8125 179.242188 21.207031 179.820312 20.628906 C 180.398438 20.046875 181.003906 19.5 181.640625 18.980469 C 182.273438 18.460938 182.929688 17.972656 183.609375 17.515625 C 184.292969 17.0625 184.992188 16.640625 185.714844 16.253906 C 186.4375 15.867188 187.179688 15.519531 187.933594 15.207031 C 188.691406 14.890625 189.460938 14.617188 190.246094 14.378906 C 191.03125 14.140625 191.824219 13.941406 192.628906 13.78125 C 193.429688 13.621094 194.238281 13.503906 195.054688 13.421875 C 195.871094 13.339844 196.6875 13.300781 197.507812 13.300781 C 198.328125 13.300781 199.144531 13.339844 199.957031 13.421875 C 200.773438 13.503906 201.582031 13.621094 202.386719 13.78125 C 203.191406 13.941406 203.984375 14.140625 204.769531 14.378906 C 205.550781 14.617188 206.324219 14.890625 207.078125 15.207031 C 207.835938 15.519531 208.574219 15.867188 209.296875 16.253906 C 210.019531 16.640625 210.722656 17.0625 211.402344 17.515625 C 212.085938 17.972656 212.742188 18.460938 213.375 18.980469 C 214.007812 19.5 214.613281 20.046875 215.195312 20.628906 C 215.773438 21.207031 216.324219 21.8125 216.84375 22.445312 C 217.363281 23.078125 217.851562 23.738281 218.304688 24.417969 C 218.761719 25.097656 219.179688 25.800781 219.566406 26.523438 C 219.953125 27.246094 220.304688 27.984375 220.617188 28.742188 C 220.929688 29.5 221.207031 30.269531 221.441406 31.054688 C 221.679688 31.835938 221.878906 32.632812 222.039062 33.433594 C 222.199219 34.238281 222.320312 35.046875 222.398438 35.863281 C 222.480469 36.679688 222.519531 37.496094 222.519531 38.316406 Z M 222.519531 38.316406 " fill-opacity="1" fill-rule="nonzero"/></g><path fill="#38b6ff" d="M 104.433594 296.757812 C 104.433594 297.574219 104.394531 298.394531 104.3125 299.207031 C 104.234375 300.023438 104.113281 300.832031 103.953125 301.636719 C 103.792969 302.441406 103.59375 303.234375 103.359375 304.019531 C 103.121094 304.800781 102.84375 305.570312 102.53125 306.328125 C 102.21875 307.085938 101.867188 307.824219 101.480469 308.546875 C 101.09375 309.269531 100.675781 309.972656 100.21875 310.652344 C 99.765625 311.335938 99.277344 311.992188 98.757812 312.625 C 98.238281 313.257812 97.6875 313.863281 97.109375 314.445312 C 96.53125 315.023438 95.921875 315.574219 95.289062 316.09375 C 94.65625 316.613281 94 317.097656 93.316406 317.554688 C 92.636719 318.007812 91.933594 318.429688 91.210938 318.816406 C 90.492188 319.203125 89.75 319.550781 88.992188 319.867188 C 88.238281 320.179688 87.464844 320.453125 86.683594 320.691406 C 85.898438 320.929688 85.105469 321.128906 84.300781 321.289062 C 83.496094 321.449219 82.6875 321.570312 81.875 321.648438 C 81.058594 321.730469 80.242188 321.769531 79.421875 321.769531 C 78.601562 321.769531 77.785156 321.730469 76.96875 321.648438 C 76.15625 321.570312 75.34375 321.449219 74.542969 321.289062 C 73.738281 321.128906 72.945312 320.929688 72.160156 320.691406 C 71.375 320.453125 70.605469 320.179688 69.847656 319.867188 C 69.09375 319.550781 68.351562 319.203125 67.628906 318.816406 C 66.90625 318.429688 66.207031 318.007812 65.523438 317.554688 C 64.84375 317.097656 64.1875 316.613281 63.554688 316.09375 C 62.921875 315.574219 62.3125 315.023438 61.734375 314.445312 C 61.15625 313.863281 60.605469 313.257812 60.085938 312.625 C 59.566406 311.992188 59.078125 311.335938 58.625 310.652344 C 58.167969 309.972656 57.75 309.269531 57.363281 308.546875 C 56.976562 307.824219 56.625 307.085938 56.3125 306.328125 C 56 305.570312 55.722656 304.800781 55.484375 304.015625 C 55.246094 303.234375 55.050781 302.441406 54.890625 301.636719 C 54.730469 300.832031 54.609375 300.023438 54.527344 299.207031 C 54.449219 298.394531 54.410156 297.574219 54.410156 296.757812 C 54.410156 295.9375 54.449219 295.121094 54.527344 294.304688 C 54.609375 293.488281 54.730469 292.679688 54.890625 291.875 C 55.050781 291.074219 55.246094 290.28125 55.484375 289.496094 C 55.722656 288.710938 56 287.941406 56.3125 287.183594 C 56.625 286.425781 56.976562 285.6875 57.363281 284.964844 C 57.75 284.242188 58.167969 283.542969 58.625 282.859375 C 59.078125 282.179688 59.566406 281.523438 60.085938 280.886719 C 60.605469 280.253906 61.15625 279.648438 61.734375 279.070312 C 62.3125 278.492188 62.921875 277.941406 63.554688 277.421875 C 64.1875 276.902344 64.84375 276.414062 65.523438 275.957031 C 66.207031 275.503906 66.90625 275.082031 67.628906 274.695312 C 68.351562 274.3125 69.09375 273.960938 69.847656 273.648438 C 70.605469 273.335938 71.375 273.058594 72.160156 272.820312 C 72.945312 272.582031 73.738281 272.382812 74.542969 272.222656 C 75.34375 272.0625 76.15625 271.945312 76.96875 271.863281 C 77.785156 271.785156 78.601562 271.742188 79.421875 271.742188 C 80.242188 271.742188 81.058594 271.785156 81.875 271.863281 C 82.6875 271.945312 83.496094 272.0625 84.300781 272.222656 C 85.105469 272.382812 85.898438 272.582031 86.683594 272.820312 C 87.464844 273.058594 88.238281 273.335938 88.992188 273.648438 C 89.75 273.960938 90.492188 274.3125 91.210938 274.695312 C 91.933594 275.082031 92.636719 275.503906 93.316406 275.957031 C 94 276.414062 94.65625 276.902344 95.289062 277.421875 C 95.921875 277.941406 96.53125 278.492188 97.109375 279.070312 C 97.6875 279.648438 98.238281 280.253906 98.757812 280.886719 C 99.277344 281.523438 99.765625 282.179688 100.21875 282.859375 C 100.675781 283.542969 101.09375 284.242188 101.480469 284.964844 C 101.867188 285.6875 102.21875 286.425781 102.53125 287.183594 C 102.84375 287.941406 103.121094 288.710938 103.359375 289.496094 C 103.59375 290.28125 103.792969 291.074219 103.953125 291.875 C 104.113281 292.679688 104.234375 293.488281 104.3125 294.304688 C 104.394531 295.121094 104.433594 295.9375 104.433594 296.757812 Z M 104.433594 296.757812 " fill-opacity="1" fill-rule="nonzero"/><g clip-path="url(#eedad69aa7)"><path fill="#0066cc" d="M 211.496094 345.675781 C 211.496094 346.496094 211.457031 347.3125 211.375 348.125 C 211.296875 348.941406 211.175781 349.75 211.015625 350.554688 C 210.855469 351.359375 210.65625 352.152344 210.417969 352.9375 C 210.179688 353.71875 209.90625 354.488281 209.589844 355.246094 C 209.277344 356.003906 208.929688 356.742188 208.542969 357.464844 C 208.15625 358.1875 207.734375 358.890625 207.28125 359.570312 C 206.824219 360.253906 206.335938 360.910156 205.816406 361.542969 C 205.296875 362.175781 204.75 362.78125 204.167969 363.363281 C 203.589844 363.941406 202.984375 364.492188 202.351562 365.011719 C 201.71875 365.53125 201.058594 366.015625 200.378906 366.472656 C 199.699219 366.929688 198.996094 367.347656 198.273438 367.734375 C 197.550781 368.121094 196.8125 368.46875 196.054688 368.785156 C 195.296875 369.097656 194.527344 369.375 193.742188 369.609375 C 192.960938 369.847656 192.164062 370.046875 191.363281 370.207031 C 190.558594 370.367188 189.75 370.488281 188.933594 370.566406 C 188.117188 370.648438 187.300781 370.6875 186.484375 370.6875 C 185.664062 370.6875 184.847656 370.648438 184.03125 370.566406 C 183.214844 370.488281 182.40625 370.367188 181.601562 370.207031 C 180.800781 370.046875 180.003906 369.847656 179.222656 369.609375 C 178.4375 369.375 177.667969 369.097656 176.910156 368.785156 C 176.152344 368.46875 175.414062 368.121094 174.691406 367.734375 C 173.96875 367.347656 173.265625 366.929688 172.585938 366.472656 C 171.90625 366.019531 171.246094 365.53125 170.613281 365.011719 C 169.980469 364.492188 169.375 363.941406 168.796875 363.363281 C 168.214844 362.78125 167.667969 362.175781 167.148438 361.542969 C 166.628906 360.910156 166.140625 360.253906 165.683594 359.570312 C 165.230469 358.890625 164.808594 358.1875 164.421875 357.464844 C 164.035156 356.742188 163.6875 356.003906 163.375 355.246094 C 163.058594 354.492188 162.785156 353.71875 162.546875 352.9375 C 162.308594 352.152344 162.109375 351.359375 161.949219 350.554688 C 161.789062 349.75 161.671875 348.941406 161.589844 348.125 C 161.507812 347.3125 161.46875 346.496094 161.46875 345.675781 C 161.46875 344.855469 161.507812 344.039062 161.589844 343.222656 C 161.671875 342.40625 161.789062 341.597656 161.949219 340.796875 C 162.109375 339.992188 162.308594 339.199219 162.546875 338.414062 C 162.785156 337.628906 163.058594 336.859375 163.375 336.101562 C 163.6875 335.347656 164.035156 334.605469 164.421875 333.882812 C 164.808594 333.160156 165.230469 332.460938 165.683594 331.777344 C 166.140625 331.097656 166.628906 330.441406 167.148438 329.808594 C 167.667969 329.171875 168.214844 328.566406 168.796875 327.988281 C 169.375 327.410156 169.980469 326.859375 170.613281 326.339844 C 171.246094 325.820312 171.90625 325.332031 172.585938 324.878906 C 173.265625 324.421875 173.96875 324 174.691406 323.617188 C 175.414062 323.230469 176.152344 322.878906 176.910156 322.566406 C 177.667969 322.253906 178.4375 321.976562 179.222656 321.738281 C 180.003906 321.5 180.800781 321.300781 181.601562 321.140625 C 182.40625 320.984375 183.214844 320.863281 184.03125 320.78125 C 184.847656 320.703125 185.664062 320.660156 186.484375 320.660156 C 187.300781 320.660156 188.117188 320.703125 188.933594 320.78125 C 189.75 320.863281 190.558594 320.984375 191.363281 321.140625 C 192.164062 321.300781 192.960938 321.5 193.742188 321.738281 C 194.527344 321.976562 195.296875 322.253906 196.054688 322.566406 C 196.8125 322.878906 197.550781 323.230469 198.273438 323.617188 C 198.996094 324 199.699219 324.421875 200.378906 324.878906 C 201.058594 325.332031 201.71875 325.820312 202.351562 326.339844 C 202.984375 326.859375 203.589844 327.410156 204.167969 327.988281 C 204.75 328.566406 205.296875 329.171875 205.816406 329.808594 C 206.335938 330.441406 206.824219 331.097656 207.28125 331.777344 C 207.734375 332.460938 208.15625 333.160156 208.542969 333.882812 C 208.929688 334.605469 209.277344 335.347656 209.589844 336.101562 C 209.90625 336.859375 210.179688 337.628906 210.417969 338.414062 C 210.65625 339.199219 210.855469 339.992188 211.015625 340.796875 C 211.175781 341.597656 211.296875 342.40625 211.375 343.222656 C 211.457031 344.039062 211.496094 344.855469 211.496094 345.675781 Z M 211.496094 345.675781 " fill-opacity="1" fill-rule="nonzero"/></g><path fill="#38b6ff" d="M 321.769531 304.566406 C 321.769531 305.386719 321.730469 306.203125 321.648438 307.019531 C 321.570312 307.835938 321.449219 308.644531 321.289062 309.449219 C 321.128906 310.25 320.929688 311.046875 320.691406 311.828125 C 320.453125 312.613281 320.179688 313.382812 319.867188 314.140625 C 319.550781 314.898438 319.203125 315.636719 318.816406 316.359375 C 318.429688 317.082031 318.007812 317.785156 317.554688 318.464844 C 317.097656 319.144531 316.613281 319.804688 316.09375 320.4375 C 315.574219 321.070312 315.023438 321.675781 314.445312 322.253906 C 313.863281 322.835938 313.257812 323.382812 312.625 323.902344 C 311.992188 324.421875 311.335938 324.910156 310.652344 325.367188 C 309.972656 325.820312 309.269531 326.242188 308.546875 326.628906 C 307.824219 327.015625 307.085938 327.363281 306.328125 327.675781 C 305.570312 327.992188 304.800781 328.265625 304.019531 328.503906 C 303.234375 328.742188 302.441406 328.941406 301.636719 329.101562 C 300.832031 329.261719 300.023438 329.378906 299.207031 329.460938 C 298.394531 329.542969 297.574219 329.582031 296.757812 329.582031 C 295.9375 329.582031 295.121094 329.542969 294.304688 329.460938 C 293.488281 329.378906 292.679688 329.261719 291.875 329.101562 C 291.074219 328.941406 290.28125 328.742188 289.496094 328.503906 C 288.710938 328.265625 287.941406 327.992188 287.183594 327.675781 C 286.425781 327.363281 285.6875 327.015625 284.964844 326.628906 C 284.242188 326.242188 283.542969 325.820312 282.859375 325.367188 C 282.179688 324.910156 281.523438 324.421875 280.886719 323.902344 C 280.253906 323.382812 279.648438 322.835938 279.070312 322.253906 C 278.492188 321.675781 277.941406 321.070312 277.421875 320.4375 C 276.902344 319.804688 276.414062 319.144531 275.957031 318.464844 C 275.503906 317.785156 275.082031 317.082031 274.695312 316.359375 C 274.3125 315.636719 273.960938 314.898438 273.648438 314.140625 C 273.332031 313.382812 273.058594 312.613281 272.820312 311.828125 C 272.582031 311.046875 272.382812 310.25 272.222656 309.449219 C 272.0625 308.644531 271.945312 307.835938 271.863281 307.019531 C 271.785156 306.203125 271.742188 305.386719 271.742188 304.566406 C 271.742188 303.75 271.785156 302.933594 271.863281 302.117188 C 271.945312 301.300781 272.0625 300.492188 272.222656 299.6875 C 272.382812 298.886719 272.582031 298.089844 272.820312 297.308594 C 273.058594 296.523438 273.332031 295.753906 273.648438 294.996094 C 273.960938 294.238281 274.3125 293.5 274.695312 292.777344 C 275.082031 292.054688 275.503906 291.351562 275.957031 290.671875 C 276.414062 289.992188 276.902344 289.332031 277.421875 288.699219 C 277.941406 288.066406 278.492188 287.460938 279.070312 286.882812 C 279.648438 286.300781 280.253906 285.753906 280.886719 285.234375 C 281.523438 284.714844 282.179688 284.226562 282.859375 283.769531 C 283.542969 283.316406 284.242188 282.894531 284.964844 282.507812 C 285.6875 282.121094 286.425781 281.773438 287.183594 281.457031 C 287.941406 281.144531 288.710938 280.871094 289.496094 280.632812 C 290.28125 280.394531 291.074219 280.195312 291.875 280.035156 C 292.679688 279.875 293.488281 279.753906 294.304688 279.675781 C 295.121094 279.59375 295.9375 279.554688 296.757812 279.554688 C 297.574219 279.554688 298.394531 279.59375 299.207031 279.675781 C 300.023438 279.753906 300.832031 279.875 301.636719 280.035156 C 302.441406 280.195312 303.234375 280.394531 304.019531 280.632812 C 304.800781 280.871094 305.570312 281.144531 306.328125 281.457031 C 307.085938 281.773438 307.824219 282.121094 308.546875 282.507812 C 309.269531 282.894531 309.972656 283.316406 310.652344 283.769531 C 311.335938 284.226562 311.992188 284.714844 312.625 285.234375 C 313.257812 285.753906 313.863281 286.300781 314.445312 286.882812 C 315.023438 287.460938 315.574219 288.066406 316.09375 288.699219 C 316.613281 289.332031 317.097656 289.992188 317.554688 290.671875 C 318.007812 291.351562 318.429688 292.054688 318.816406 292.777344 C 319.203125 293.5 319.550781 294.238281 319.867188 294.996094 C 320.179688 295.753906 320.453125 296.523438 320.691406 297.308594 C 320.929688 298.089844 321.128906 298.886719 321.289062 299.6875 C 321.449219 300.492188 321.570312 301.300781 321.648438 302.117188 C 321.730469 302.933594 321.769531 303.75 321.769531 304.566406 Z M 321.769531 304.566406 " fill-opacity="1" fill-rule="nonzero"/><path fill="#0066cc" d="M 370.6875 197.507812 C 370.6875 198.328125 370.648438 199.144531 370.566406 199.957031 C 370.488281 200.773438 370.367188 201.582031 370.207031 202.386719 C 370.046875 203.191406 369.847656 203.984375 369.609375 204.769531 C 369.375 205.550781 369.097656 206.324219 368.785156 207.078125 C 368.472656 207.835938 368.121094 208.574219 367.734375 209.296875 C 367.347656 210.019531 366.929688 210.722656 366.472656 211.402344 C 366.019531 212.085938 365.53125 212.742188 365.011719 213.375 C 364.492188 214.007812 363.941406 214.613281 363.363281 215.195312 C 362.78125 215.773438 362.175781 216.324219 361.542969 216.84375 C 360.910156 217.363281 360.253906 217.851562 359.570312 218.304688 C 358.890625 218.761719 358.1875 219.179688 357.464844 219.566406 C 356.742188 219.953125 356.003906 220.304688 355.246094 220.617188 C 354.492188 220.929688 353.71875 221.207031 352.9375 221.441406 C 352.152344 221.679688 351.359375 221.878906 350.554688 222.039062 C 349.75 222.199219 348.941406 222.320312 348.125 222.398438 C 347.3125 222.480469 346.496094 222.519531 345.675781 222.519531 C 344.855469 222.519531 344.039062 222.480469 343.222656 222.398438 C 342.40625 222.320312 341.597656 222.199219 340.796875 222.039062 C 339.992188 221.878906 339.199219 221.679688 338.414062 221.441406 C 337.628906 221.207031 336.859375 220.929688 336.101562 220.617188 C 335.347656 220.304688 334.605469 219.953125 333.882812 219.566406 C 333.160156 219.179688 332.460938 218.761719 331.777344 218.304688 C 331.097656 217.851562 330.441406 217.363281 329.808594 216.84375 C 329.171875 216.324219 328.566406 215.773438 327.988281 215.195312 C 327.410156 214.613281 326.859375 214.007812 326.339844 213.375 C 325.820312 212.742188 325.332031 212.085938 324.878906 211.402344 C 324.421875 210.722656 324 210.019531 323.617188 209.296875 C 323.230469 208.574219 322.878906 207.835938 322.566406 207.078125 C 322.253906 206.324219 321.976562 205.550781 321.738281 204.769531 C 321.5 203.984375 321.300781 203.191406 321.140625 202.386719 C 320.984375 201.582031 320.863281 200.773438 320.78125 199.957031 C 320.703125 199.144531 320.660156 198.328125 320.660156 197.507812 C 320.660156 196.6875 320.703125 195.871094 320.78125 195.054688 C 320.863281 194.238281 320.984375 193.429688 321.140625 192.628906 C 321.300781 191.824219 321.5 191.03125 321.738281 190.246094 C 321.976562 189.460938 322.253906 188.691406 322.566406 187.933594 C 322.878906 187.179688 323.230469 186.4375 323.617188 185.714844 C 324 184.992188 324.421875 184.292969 324.878906 183.609375 C 325.332031 182.929688 325.820312 182.273438 326.339844 181.640625 C 326.859375 181.003906 327.410156 180.398438 327.988281 179.820312 C 328.566406 179.242188 329.171875 178.691406 329.808594 178.171875 C 330.441406 177.652344 331.097656 177.164062 331.777344 176.710938 C 332.460938 176.253906 333.160156 175.832031 333.882812 175.449219 C 334.605469 175.0625 335.347656 174.710938 336.101562 174.398438 C 336.859375 174.085938 337.628906 173.808594 338.414062 173.570312 C 339.199219 173.332031 339.992188 173.132812 340.796875 172.976562 C 341.597656 172.816406 342.40625 172.695312 343.222656 172.613281 C 344.039062 172.535156 344.855469 172.492188 345.675781 172.492188 C 346.496094 172.492188 347.3125 172.535156 348.125 172.613281 C 348.941406 172.695312 349.75 172.816406 350.554688 172.976562 C 351.359375 173.132812 352.152344 173.332031 352.9375 173.570312 C 353.71875 173.808594 354.492188 174.085938 355.246094 174.398438 C 356.003906 174.710938 356.742188 175.0625 357.464844 175.449219 C 358.1875 175.832031 358.890625 176.253906 359.570312 176.710938 C 360.253906 177.164062 360.910156 177.652344 361.542969 178.171875 C 362.175781 178.691406 362.78125 179.242188 363.363281 179.820312 C 363.941406 180.398438 364.492188 181.003906 365.011719 181.640625 C 365.53125 182.273438 366.015625 182.929688 366.472656 183.609375 C 366.929688 184.292969 367.347656 184.992188 367.734375 185.714844 C 368.121094 186.4375 368.46875 187.179688 368.785156 187.933594 C 369.097656 188.691406 369.375 189.460938 369.609375 190.246094 C 369.847656 191.03125 370.046875 191.824219 370.207031 192.628906 C 370.367188 193.429688 370.488281 194.238281 370.566406 195.054688 C 370.648438 195.871094 370.6875 196.6875 370.6875 197.507812 Z M 370.6875 197.507812 " fill-opacity="1" fill-rule="nonzero"/><path fill="#38b6ff" d="M 329.582031 87.234375 C 329.582031 88.050781 329.542969 88.871094 329.460938 89.683594 C 329.378906 90.5 329.261719 91.308594 329.101562 92.113281 C 328.941406 92.917969 328.742188 93.710938 328.503906 94.492188 C 328.265625 95.277344 327.992188 96.046875 327.675781 96.804688 C 327.363281 97.5625 327.015625 98.300781 326.628906 99.023438 C 326.242188 99.746094 325.820312 100.449219 325.367188 101.128906 C 324.910156 101.8125 324.421875 102.46875 323.902344 103.101562 C 323.382812 103.734375 322.835938 104.339844 322.253906 104.921875 C 321.675781 105.5 321.070312 106.050781 320.4375 106.570312 C 319.804688 107.089844 319.144531 107.574219 318.464844 108.03125 C 317.785156 108.484375 317.082031 108.90625 316.359375 109.292969 C 315.636719 109.679688 314.898438 110.027344 314.140625 110.34375 C 313.382812 110.65625 312.613281 110.929688 311.828125 111.167969 C 311.046875 111.40625 310.25 111.605469 309.449219 111.765625 C 308.644531 111.925781 307.835938 112.046875 307.019531 112.125 C 306.203125 112.207031 305.386719 112.246094 304.566406 112.246094 C 303.75 112.246094 302.933594 112.207031 302.117188 112.125 C 301.300781 112.046875 300.492188 111.925781 299.6875 111.765625 C 298.886719 111.605469 298.089844 111.40625 297.308594 111.167969 C 296.523438 110.929688 295.753906 110.65625 294.996094 110.34375 C 294.238281 110.027344 293.5 109.679688 292.777344 109.292969 C 292.054688 108.90625 291.351562 108.484375 290.671875 108.03125 C 289.992188 107.574219 289.332031 107.089844 288.699219 106.570312 C 288.066406 106.050781 287.460938 105.5 286.882812 104.921875 C 286.300781 104.339844 285.753906 103.734375 285.234375 103.101562 C 284.714844 102.46875 284.226562 101.8125 283.769531 101.128906 C 283.316406 100.449219 282.894531 99.746094 282.507812 99.023438 C 282.121094 98.300781 281.773438 97.5625 281.457031 96.804688 C 281.144531 96.046875 280.871094 95.277344 280.632812 94.492188 C 280.394531 93.710938 280.195312 92.917969 280.035156 92.113281 C 279.875 91.308594 279.753906 90.5 279.675781 89.683594 C 279.59375 88.871094 279.554688 88.050781 279.554688 87.234375 C 279.554688 86.414062 279.59375 85.597656 279.675781 84.78125 C 279.753906 83.964844 279.875 83.15625 280.035156 82.351562 C 280.195312 81.550781 280.394531 80.757812 280.632812 79.972656 C 280.871094 79.1875 281.144531 78.417969 281.457031 77.660156 C 281.773438 76.902344 282.121094 76.164062 282.507812 75.441406 C 282.894531 74.71875 283.316406 74.019531 283.769531 73.335938 C 284.226562 72.65625 284.714844 72 285.234375 71.363281 C 285.753906 70.730469 286.300781 70.125 286.882812 69.546875 C 287.460938 68.96875 288.066406 68.417969 288.699219 67.898438 C 289.332031 67.378906 289.992188 66.890625 290.671875 66.433594 C 291.351562 65.980469 292.054688 65.558594 292.777344 65.171875 C 293.5 64.789062 294.238281 64.4375 294.996094 64.125 C 295.753906 63.808594 296.523438 63.535156 297.308594 63.296875 C 298.089844 63.058594 298.886719 62.859375 299.6875 62.699219 C 300.492188 62.539062 301.300781 62.421875 302.117188 62.339844 C 302.933594 62.261719 303.75 62.21875 304.566406 62.21875 C 305.386719 62.21875 306.203125 62.261719 307.019531 62.339844 C 307.835938 62.421875 308.644531 62.539062 309.449219 62.699219 C 310.25 62.859375 311.046875 63.058594 311.828125 63.296875 C 312.613281 63.535156 313.382812 63.808594 314.140625 64.125 C 314.898438 64.4375 315.636719 64.789062 316.359375 65.171875 C 317.082031 65.558594 317.785156 65.980469 318.464844 66.433594 C 319.144531 66.890625 319.804688 67.378906 320.4375 67.898438 C 321.070312 68.417969 321.675781 68.96875 322.253906 69.546875 C 322.835938 70.125 323.382812 70.730469 323.902344 71.363281 C 324.421875 72 324.910156 72.65625 325.367188 73.335938 C 325.820312 74.019531 326.242188 74.71875 326.628906 75.441406 C 327.015625 76.164062 327.363281 76.902344 327.675781 77.660156 C 327.992188 78.417969 328.265625 79.1875 328.503906 79.972656 C 328.742188 80.757812 328.941406 81.550781 329.101562 82.351562 C 329.261719 83.15625 329.378906 83.964844 329.460938 84.78125 C 329.542969 85.597656 329.582031 86.414062 329.582031 87.234375 Z M 329.582031 87.234375 " fill-opacity="1" fill-rule="nonzero"/><path fill="#0066cc" d="M 155.875 115.292969 C 157.839844 113.328125 160.5 112.21875 163.269531 112.21875 C 166.621094 112.21875 169.808594 110.613281 171.773438 107.871094 L 181.164062 94.851562 C 189.195312 83.6875 205.816406 83.660156 213.90625 94.796875 L 238.613281 90.804688 L 219.390625 64.324219 C 217.976562 62.386719 215.320312 61.941406 213.324219 63.21875 C 208.753906 66.125 203.324219 67.816406 197.507812 67.816406 C 191.691406 67.816406 186.261719 66.125 181.691406 63.1875 C 179.695312 61.914062 177.035156 62.386719 175.652344 64.324219 L 137.039062 117.871094 C 136.898438 118.0625 136.734375 118.285156 136.621094 118.507812 C 132.992188 124.296875 140.75 130.472656 145.570312 125.625 Z M 115.292969 228.089844 C 113.328125 226.121094 112.21875 223.460938 112.21875 220.691406 C 112.21875 217.339844 110.613281 214.15625 107.871094 212.1875 L 94.851562 202.796875 C 83.6875 194.765625 83.660156 178.144531 94.796875 170.054688 L 90.804688 145.347656 L 64.324219 164.570312 C 62.386719 165.957031 61.914062 168.617188 63.1875 170.636719 C 66.125 175.207031 67.816406 180.636719 67.816406 186.484375 C 67.816406 192.300781 66.125 197.699219 63.21875 202.273438 C 61.941406 204.292969 62.386719 206.925781 64.324219 208.339844 L 118.175781 247.171875 C 118.230469 247.203125 118.257812 247.230469 118.3125 247.285156 C 124.046875 251.300781 130.613281 243.433594 125.652344 238.476562 Z M 320.773438 213.324219 C 317.835938 208.753906 316.148438 203.324219 316.148438 197.480469 C 316.148438 191.664062 317.835938 186.261719 320.746094 181.691406 C 322.019531 179.667969 321.574219 177.035156 319.636719 175.625 L 265.789062 136.816406 C 265.734375 136.789062 265.703125 136.761719 265.648438 136.707031 C 259.914062 132.6875 253.351562 140.554688 258.308594 145.515625 L 268.667969 155.875 C 270.636719 157.839844 271.742188 160.5 271.742188 163.269531 C 271.742188 166.621094 273.351562 169.808594 276.09375 171.773438 L 289.113281 181.164062 C 300.273438 189.195312 300.300781 205.816406 289.167969 213.90625 L 293.15625 238.613281 L 319.664062 219.390625 C 321.574219 217.976562 322.074219 215.347656 320.773438 213.324219 Z M 238.449219 258.308594 L 228.089844 268.695312 C 226.121094 270.664062 223.460938 271.769531 220.691406 271.769531 C 217.339844 271.769531 214.15625 273.378906 212.1875 276.121094 L 202.796875 289.140625 C 194.765625 300.300781 178.144531 300.328125 170.054688 289.195312 L 145.347656 293.183594 L 164.570312 319.664062 C 165.957031 321.605469 168.617188 322.074219 170.636719 320.800781 C 175.207031 317.863281 180.636719 316.175781 186.484375 316.175781 C 192.300781 316.175781 197.699219 317.863281 202.273438 320.773438 C 204.292969 322.046875 206.925781 321.605469 208.339844 319.664062 L 247.171875 265.816406 C 247.203125 265.761719 247.230469 265.734375 247.285156 265.675781 C 251.273438 259.914062 243.40625 253.378906 238.449219 258.308594 Z M 238.449219 258.308594 " fill-opacity="1" fill-rule="nonzero"/><path fill="#38b6ff" d="M 112.21875 163.296875 C 112.21875 160.527344 113.328125 157.867188 115.292969 155.902344 C 117.675781 153.519531 118.753906 150.140625 118.230469 146.816406 L 115.652344 130.972656 C 113.464844 117.398438 125.183594 105.625 138.753906 107.785156 L 153.410156 87.480469 L 121.082031 82.359375 C 118.726562 81.96875 116.511719 83.550781 116.011719 85.875 C 114.851562 91.167969 112.21875 96.207031 108.089844 100.308594 C 103.992188 104.40625 98.949219 107.066406 93.632812 108.230469 C 91.304688 108.757812 89.78125 110.945312 90.167969 113.300781 L 100.722656 178.449219 C 100.75 178.699219 100.804688 178.949219 100.863281 179.199219 C 102.386719 185.875 112.21875 184.738281 112.21875 177.894531 Z M 163.296875 271.742188 C 160.527344 271.742188 157.867188 270.636719 155.902344 268.667969 C 153.519531 266.285156 150.140625 265.207031 146.816406 265.734375 L 130.972656 268.308594 C 117.398438 270.496094 105.625 258.78125 107.785156 245.207031 L 87.480469 230.554688 L 82.359375 262.878906 C 81.996094 265.234375 83.519531 267.449219 85.847656 267.949219 C 91.140625 269.113281 96.179688 271.742188 100.308594 275.871094 C 104.40625 279.96875 107.039062 285.011719 108.230469 290.300781 C 108.757812 292.628906 110.945312 294.179688 113.300781 293.792969 L 178.835938 283.183594 C 178.894531 283.183594 178.949219 283.15625 179.003906 283.15625 C 185.902344 281.9375 184.960938 271.742188 177.949219 271.742188 Z M 298.140625 116.011719 C 292.851562 114.851562 287.808594 112.21875 283.683594 108.089844 C 279.582031 103.992188 276.949219 98.949219 275.761719 93.660156 C 275.234375 91.332031 273.046875 89.78125 270.691406 90.167969 L 205.152344 100.777344 C 205.097656 100.777344 205.042969 100.804688 204.984375 100.804688 C 198.089844 102.023438 199.03125 112.21875 206.039062 112.21875 L 220.691406 112.21875 C 223.460938 112.21875 226.121094 113.328125 228.089844 115.292969 C 230.46875 117.675781 233.851562 118.753906 237.171875 118.230469 L 253.019531 115.652344 C 266.589844 113.464844 278.363281 125.183594 276.203125 138.753906 L 296.507812 153.410156 L 301.632812 121.082031 C 302.019531 118.726562 300.46875 116.539062 298.140625 116.011719 Z M 271.742188 206.039062 L 271.742188 220.691406 C 271.742188 223.460938 270.636719 226.121094 268.667969 228.089844 C 266.285156 230.46875 265.207031 233.851562 265.734375 237.171875 L 268.308594 253.019531 C 270.496094 266.589844 258.78125 278.363281 245.207031 276.203125 L 230.554688 296.507812 L 262.878906 301.632812 C 265.234375 301.992188 267.449219 300.46875 267.949219 298.140625 C 269.113281 292.851562 271.742188 287.78125 275.871094 283.683594 C 279.96875 279.582031 285.011719 276.949219 290.300781 275.761719 C 292.628906 275.234375 294.179688 273.046875 293.792969 270.691406 L 283.183594 205.152344 C 283.183594 205.097656 283.15625 205.042969 283.15625 204.984375 C 281.9375 198.089844 271.742188 199.03125 271.742188 206.039062 Z M 271.742188 206.039062 " fill-opacity="1" fill-rule="nonzero"/><g transform="matrix(1, 0, 0, 1, 106, 141)"><g clip-path="url(#981b25ebdb)"><g fill="#ffffff" fill-opacity="1"><g transform="translate(5.233895, 98.5177)"><g><path d="M 18.609375 -64.648438 L 31.9375 -51.445312 L 28.492188 -47.964844 L 31.738281 -51.636719 C 36.0625 -47.8125 39.261719 -43.320312 41.335938 -38.160156 C 43.359375 -33.128906 44.371094 -28.121094 44.371094 -23.132812 C 44.371094 -18.199219 43.457031 -13.578125 41.628906 -9.261719 C 39.710938 -4.730469 36.839844 -1.066406 33.019531 1.730469 C 29.066406 4.628906 24.246094 6.078125 18.558594 6.078125 C 14.15625 6.078125 10.34375 4.742188 7.128906 2.070312 C 4.441406 -0.160156 2.222656 -2.613281 0.472656 -5.289062 L 4.574219 -7.972656 L 1.109375 -4.507812 L 0.285156 -5.332031 L -0.332031 -6.566406 L 4.050781 -8.757812 L 4.050781 -3.855469 C 5.25 -3.855469 6.285156 -4.253906 7.160156 -5.046875 C 7.550781 -5.402344 7.855469 -5.800781 8.074219 -6.238281 C 8.148438 -6.382812 8.199219 -6.507812 8.230469 -6.613281 C 8.226562 -6.597656 8.21875 -6.554688 8.203125 -6.488281 C 8.082031 -5.875 8.003906 -5.109375 7.96875 -4.195312 C 7.925781 -3 7.878906 -1.953125 7.835938 -1.0625 L 7.539062 4.902344 L -3.855469 4.902344 L -3.855469 -40.582031 L 8.429688 -40.582031 L 8.429688 -35.546875 C 8.429688 -35.289062 8.492188 -33.980469 8.617188 -31.628906 C 8.742188 -29.316406 9.015625 -26.566406 9.433594 -23.378906 C 9.828125 -20.371094 10.523438 -17.359375 11.515625 -14.339844 C 12.402344 -11.644531 13.570312 -9.457031 15.019531 -7.769531 C 15.917969 -6.730469 17.09375 -6.207031 18.558594 -6.207031 C 20.199219 -6.207031 21.746094 -7.132812 23.203125 -8.980469 C 24.941406 -11.183594 25.8125 -15.292969 25.8125 -21.304688 C 25.8125 -24.535156 25.460938 -27.066406 24.761719 -28.898438 C 24.058594 -30.742188 23.25 -32.183594 22.332031 -33.21875 C 21.175781 -34.53125 20.074219 -35.632812 19.027344 -36.53125 L 18.886719 -36.65625 L 18.753906 -36.789062 C 18.59375 -36.945312 18.445312 -37.082031 18.296875 -37.207031 C 17.921875 -37.519531 17.550781 -37.859375 17.183594 -38.226562 L 7.382812 -48.027344 L 10.847656 -51.492188 L 7.554688 -47.859375 C 4.203125 -50.898438 1.691406 -54.539062 0.015625 -58.773438 C -1.605469 -62.882812 -2.417969 -66.988281 -2.417969 -71.097656 C -2.417969 -75.421875 -1.613281 -79.480469 -0.00390625 -83.273438 C 1.691406 -87.257812 4.214844 -90.515625 7.570312 -93.046875 C 11.101562 -95.707031 15.375 -97.039062 20.386719 -97.039062 C 24.804688 -97.039062 28.582031 -95.71875 31.714844 -93.074219 C 34.339844 -90.863281 36.484375 -88.402344 38.152344 -85.6875 L 33.980469 -83.121094 L 38.058594 -85.839844 L 38.449219 -85.25 L 38.582031 -85.054688 L 34.503906 -82.335938 L 34.503906 -87.238281 C 33.304688 -87.238281 32.269531 -86.839844 31.394531 -86.042969 C 31.003906 -85.6875 30.695312 -85.292969 30.476562 -84.855469 C 30.40625 -84.710938 30.355469 -84.585938 30.324219 -84.480469 C 30.328125 -84.496094 30.335938 -84.539062 30.351562 -84.605469 C 30.472656 -85.21875 30.550781 -85.980469 30.585938 -86.894531 C 30.628906 -88.09375 30.675781 -89.136719 30.71875 -90.03125 L 31.015625 -95.992188 L 42.410156 -95.992188 L 42.410156 -50.382812 L 30.125 -50.382812 L 30.125 -55.542969 C 30.125 -55.980469 30.0625 -57.398438 29.933594 -59.796875 C 29.8125 -62.152344 29.539062 -64.921875 29.121094 -68.105469 C 28.726562 -71.113281 28.050781 -74.058594 27.101562 -76.949219 C 26.257812 -79.515625 25.132812 -81.621094 23.722656 -83.261719 C 22.871094 -84.257812 21.761719 -84.753906 20.386719 -84.753906 C 19.566406 -84.753906 18.679688 -84.007812 17.722656 -82.511719 C 16.320312 -80.308594 15.617188 -77.503906 15.617188 -74.101562 C 15.617188 -71.285156 15.953125 -69.195312 16.621094 -67.828125 C 17.382812 -66.269531 18.050781 -65.203125 18.625 -64.628906 Z M 11.695312 -57.699219 C 10.351562 -59.042969 9.058594 -60.980469 7.816406 -63.519531 C 6.484375 -66.246094 5.816406 -69.773438 5.816406 -74.101562 C 5.816406 -79.410156 7.03125 -83.972656 9.460938 -87.78125 C 12.339844 -92.296875 15.984375 -94.554688 20.386719 -94.554688 C 24.765625 -94.554688 28.359375 -92.917969 31.167969 -89.640625 C 33.417969 -87.015625 35.167969 -83.804688 36.414062 -80.011719 C 37.554688 -76.539062 38.363281 -72.996094 38.839844 -69.382812 C 39.292969 -65.945312 39.585938 -62.921875 39.722656 -60.3125 C 39.859375 -57.742188 39.925781 -56.152344 39.925781 -55.542969 L 39.925781 -55.28125 L 35.027344 -55.28125 L 35.027344 -60.183594 L 37.507812 -60.183594 L 37.507812 -55.28125 L 32.609375 -55.28125 L 32.609375 -91.09375 L 37.507812 -91.09375 L 37.507812 -86.191406 L 35.679688 -86.191406 L 35.679688 -91.09375 L 40.574219 -90.847656 L 40.507812 -89.539062 C 40.464844 -88.691406 40.421875 -87.6875 40.378906 -86.53125 C 40.328125 -85.09375 40.1875 -83.808594 39.960938 -82.683594 C 39.789062 -81.816406 39.550781 -81.082031 39.246094 -80.472656 C 38.917969 -79.816406 38.5 -79.257812 37.988281 -78.792969 C 36.992188 -77.886719 35.832031 -77.433594 34.503906 -77.433594 L 31.878906 -77.433594 L 30.292969 -79.8125 L 29.851562 -80.476562 L 29.804688 -80.550781 C 28.6875 -82.371094 27.21875 -84.046875 25.398438 -85.582031 C 24.085938 -86.683594 22.417969 -87.238281 20.386719 -87.238281 C 17.5625 -87.238281 15.253906 -86.5625 13.472656 -85.21875 C 11.511719 -83.742188 10.027344 -81.816406 9.019531 -79.441406 C 7.929688 -76.871094 7.382812 -74.089844 7.382812 -71.097656 C 7.382812 -68.234375 7.96875 -65.328125 9.132812 -62.375 C 10.246094 -59.558594 11.914062 -57.140625 14.136719 -55.125 L 14.226562 -55.042969 L 24.113281 -45.15625 C 24.273438 -45 24.421875 -44.859375 24.570312 -44.738281 C 24.945312 -44.425781 25.316406 -44.085938 25.683594 -43.71875 L 22.21875 -40.253906 L 25.40625 -43.972656 C 26.800781 -42.78125 28.226562 -41.359375 29.683594 -39.707031 C 31.382812 -37.78125 32.792969 -35.34375 33.917969 -32.394531 C 35.050781 -29.4375 35.613281 -25.738281 35.613281 -21.304688 C 35.613281 -13.023438 34.042969 -6.894531 30.902344 -2.910156 C 27.480469 1.425781 23.367188 3.59375 18.558594 3.59375 C 14.097656 3.59375 10.441406 1.9375 7.589844 -1.378906 C 5.292969 -4.050781 3.496094 -7.347656 2.207031 -11.277344 C 1.019531 -14.878906 0.191406 -18.488281 -0.285156 -22.101562 C -0.738281 -25.539062 -1.03125 -28.539062 -1.167969 -31.105469 C -1.304688 -33.628906 -1.371094 -35.113281 -1.371094 -35.546875 L -1.371094 -35.679688 L 3.527344 -35.679688 L 3.527344 -30.777344 L 1.046875 -30.777344 L 1.046875 -35.679688 L 5.945312 -35.679688 L 5.945312 0 L 1.046875 0 L 1.046875 -4.902344 L 2.875 -4.902344 L 2.875 0 L -2.019531 -0.246094 L -1.953125 -1.550781 C -1.910156 -2.402344 -1.871094 -3.40625 -1.828125 -4.558594 C -1.773438 -6 -1.632812 -7.28125 -1.40625 -8.410156 C -1.234375 -9.273438 -0.996094 -10.011719 -0.691406 -10.621094 C -0.363281 -11.277344 0.0546875 -11.835938 0.566406 -12.300781 C 1.5625 -13.207031 2.722656 -13.65625 4.050781 -13.65625 L 7.082031 -13.65625 L 8.5 -10.816406 L 8.695312 -10.425781 L 4.3125 -8.234375 L 7.777344 -11.699219 L 8.398438 -11.078125 L 8.675781 -10.65625 C 9.886719 -8.800781 11.460938 -7.074219 13.390625 -5.46875 C 14.792969 -4.304688 16.515625 -3.726562 18.558594 -3.726562 C 22.109375 -3.726562 24.996094 -4.542969 27.230469 -6.175781 C 29.59375 -7.910156 31.386719 -10.210938 32.601562 -13.085938 C 33.914062 -16.175781 34.566406 -19.527344 34.566406 -23.132812 C 34.566406 -26.855469 33.792969 -30.648438 32.242188 -34.503906 C 30.746094 -38.230469 28.414062 -41.492188 25.246094 -44.292969 L 25.140625 -44.382812 L 11.710938 -57.679688 Z M 11.695312 -57.699219 "/></g></g></g><g fill="#ffffff" fill-opacity="1"><g transform="translate(46.136722, 98.5177)"><g><path d="M 24.570312 5.816406 C 19.363281 5.816406 14.90625 4.386719 11.191406 1.53125 C 7.757812 -1.109375 5.003906 -4.535156 2.925781 -8.742188 C 1.007812 -12.625 -0.453125 -16.832031 -1.453125 -21.355469 C -2.417969 -25.71875 -3.0625 -30.023438 -3.382812 -34.261719 C -3.699219 -38.394531 -3.855469 -42.046875 -3.855469 -45.21875 C -3.855469 -48.390625 -3.699219 -52.066406 -3.382812 -56.238281 C -3.0625 -60.511719 -2.421875 -64.890625 -1.460938 -69.378906 C -0.464844 -74.03125 0.992188 -78.339844 2.902344 -82.308594 C 4.964844 -86.582031 7.667969 -90.078125 11.023438 -92.804688 C 14.710938 -95.800781 19.226562 -97.300781 24.570312 -97.300781 C 29.824219 -97.300781 34.296875 -95.800781 37.984375 -92.804688 C 41.347656 -90.074219 44.054688 -86.546875 46.117188 -82.222656 C 48.023438 -78.21875 49.472656 -73.921875 50.46875 -69.324219 C 51.425781 -64.894531 52.089844 -60.550781 52.453125 -56.289062 C 52.816406 -52.101562 52.996094 -48.410156 52.996094 -45.21875 C 52.996094 -42.046875 52.839844 -38.394531 52.523438 -34.261719 C 52.203125 -30.023438 51.558594 -25.71875 50.59375 -21.355469 C 49.59375 -16.832031 48.132812 -12.625 46.214844 -8.742188 C 44.136719 -4.535156 41.382812 -1.109375 37.949219 1.53125 C 34.234375 4.386719 29.777344 5.816406 24.570312 5.816406 Z M 24.570312 -3.984375 C 27.554688 -3.984375 30.019531 -4.738281 31.972656 -6.238281 C 34.203125 -7.953125 36.019531 -10.234375 37.425781 -13.082031 C 38.996094 -16.257812 40.191406 -19.71875 41.023438 -23.472656 C 41.886719 -27.382812 42.460938 -31.226562 42.75 -35.003906 C 43.046875 -38.890625 43.195312 -42.292969 43.195312 -45.21875 C 43.195312 -48.128906 43.023438 -51.539062 42.6875 -55.449219 C 42.359375 -59.292969 41.757812 -63.226562 40.886719 -67.25 C 40.050781 -71.105469 38.84375 -74.691406 37.265625 -78.007812 C 35.839844 -81 34.019531 -83.398438 31.804688 -85.199219 C 29.917969 -86.730469 27.503906 -87.5 24.570312 -87.5 C 21.546875 -87.5 19.09375 -86.730469 17.207031 -85.199219 C 14.984375 -83.390625 13.160156 -81.011719 11.734375 -78.050781 C 10.160156 -74.789062 8.957031 -71.210938 8.125 -67.324219 C 7.257812 -63.273438 6.679688 -59.332031 6.390625 -55.503906 C 6.09375 -51.574219 5.945312 -48.144531 5.945312 -45.21875 C 5.945312 -42.292969 6.09375 -38.890625 6.390625 -35.003906 C 6.675781 -31.226562 7.253906 -27.382812 8.117188 -23.472656 C 8.949219 -19.71875 10.144531 -16.257812 11.714844 -13.082031 C 13.121094 -10.234375 14.9375 -7.953125 17.167969 -6.238281 C 19.121094 -4.738281 21.585938 -3.984375 24.570312 -3.984375 Z M 24.570312 -6.339844 C 25.558594 -6.339844 26.394531 -6.714844 27.078125 -7.46875 C 28.3125 -8.835938 29.367188 -10.683594 30.238281 -13.019531 C 31.222656 -15.660156 31.996094 -18.539062 32.554688 -21.644531 C 33.140625 -24.90625 33.578125 -28.105469 33.871094 -31.234375 C 34.167969 -34.40625 34.355469 -37.207031 34.441406 -39.636719 C 34.523438 -42.109375 34.566406 -43.839844 34.566406 -44.828125 C 34.566406 -47.679688 34.441406 -50.988281 34.1875 -54.757812 C 33.933594 -58.503906 33.511719 -62.359375 32.921875 -66.324219 C 32.351562 -70.148438 31.542969 -73.675781 30.496094 -76.898438 C 29.550781 -79.804688 28.402344 -82.085938 27.046875 -83.746094 C 26.285156 -84.679688 25.460938 -85.144531 24.570312 -85.144531 C 23.253906 -85.144531 22.148438 -84.542969 21.253906 -83.335938 C 19.753906 -81.3125 18.558594 -78.640625 17.675781 -75.324219 C 16.691406 -71.640625 15.976562 -67.761719 15.523438 -63.695312 C 15.058594 -59.503906 14.761719 -55.597656 14.632812 -51.976562 C 14.507812 -48.285156 14.441406 -45.425781 14.441406 -43.390625 C 14.441406 -41.644531 14.527344 -39.136719 14.695312 -35.867188 C 14.863281 -32.648438 15.199219 -29.164062 15.703125 -25.421875 C 16.191406 -21.804688 16.941406 -18.339844 17.953125 -15.019531 C 18.859375 -12.054688 20.023438 -9.6875 21.457031 -7.914062 C 22.304688 -6.863281 23.34375 -6.339844 24.570312 -6.339844 Z M 24.570312 3.464844 C 20.222656 3.464844 16.640625 1.722656 13.832031 -1.757812 C 11.601562 -4.515625 9.851562 -7.984375 8.578125 -12.164062 C 7.410156 -15.988281 6.546875 -19.972656 5.992188 -24.109375 C 5.449219 -28.121094 5.089844 -31.871094 4.90625 -35.359375 C 4.730469 -38.796875 4.640625 -41.476562 4.640625 -43.390625 C 4.640625 -45.539062 4.707031 -48.511719 4.839844 -52.316406 C 4.972656 -56.1875 5.289062 -60.339844 5.78125 -64.777344 C 6.285156 -69.332031 7.09375 -73.691406 8.203125 -77.847656 C 9.410156 -82.371094 11.132812 -86.148438 13.378906 -89.175781 C 16.234375 -93.023438 19.960938 -94.949219 24.570312 -94.949219 C 28.558594 -94.949219 31.917969 -93.28125 34.640625 -89.945312 C 36.769531 -87.335938 38.496094 -83.996094 39.816406 -79.929688 C 41.035156 -76.1875 41.96875 -72.132812 42.617188 -67.765625 C 43.246094 -63.542969 43.695312 -59.425781 43.96875 -55.417969 C 44.234375 -51.429688 44.371094 -47.898438 44.371094 -44.828125 C 44.371094 -43.726562 44.324219 -41.882812 44.238281 -39.300781 C 44.144531 -36.675781 43.945312 -33.683594 43.628906 -30.324219 C 43.3125 -26.917969 42.835938 -23.449219 42.203125 -19.914062 C 41.539062 -16.226562 40.613281 -12.785156 39.421875 -9.589844 C 38.113281 -6.085938 36.421875 -3.1875 34.347656 -0.894531 C 31.71875 2.011719 28.460938 3.464844 24.570312 3.464844 Z M 24.570312 3.464844 "/></g></g></g><g fill="#ffffff" fill-opacity="1"><g transform="translate(94.096104, 98.5177)"><g><path d="M 1.046875 -96.386719 L 38.75 -96.386719 L 38.75 -59.53125 L 27.246094 -59.53125 L 27.054688 -66.785156 C 27.015625 -68.339844 26.890625 -70.308594 26.679688 -72.695312 C 26.476562 -75.03125 26.167969 -77.347656 25.757812 -79.644531 C 25.410156 -81.585938 24.917969 -83.160156 24.285156 -84.367188 C 24.207031 -84.511719 24.140625 -84.625 24.082031 -84.699219 C 24.09375 -84.683594 24.128906 -84.652344 24.1875 -84.609375 C 24.515625 -84.355469 24.90625 -84.230469 25.355469 -84.230469 L 24.570312 -84.230469 L 24.570312 -89.132812 L 27.796875 -85.445312 L 27.808594 -85.445312 C 27.746094 -85.375 27.679688 -85.277344 27.597656 -85.15625 C 27.367188 -84.808594 27.117188 -84.34375 26.84375 -83.773438 C 26.417969 -82.867188 26.203125 -81.210938 26.203125 -78.808594 L 26.203125 -12.675781 C 26.203125 -10.105469 26.441406 -8.378906 26.921875 -7.492188 C 27.210938 -6.960938 27.472656 -6.546875 27.714844 -6.253906 C 27.78125 -6.171875 27.832031 -6.113281 27.875 -6.074219 C 27.851562 -6.097656 27.808594 -6.125 27.746094 -6.164062 L 31.433594 -3.953125 L 31.433594 4.902344 L 3.464844 4.902344 L 3.464844 -3.953125 L 7.148438 -6.164062 C 7.085938 -6.125 7.042969 -6.097656 7.019531 -6.074219 C 7.0625 -6.113281 7.113281 -6.171875 7.179688 -6.253906 C 7.421875 -6.546875 7.683594 -6.960938 7.972656 -7.492188 C 8.453125 -8.378906 8.691406 -10.105469 8.691406 -12.675781 L 8.691406 -78.808594 C 8.691406 -81.210938 8.476562 -82.867188 8.050781 -83.773438 C 7.777344 -84.34375 7.527344 -84.808594 7.296875 -85.15625 C 7.214844 -85.277344 7.148438 -85.375 7.085938 -85.445312 L 7.097656 -85.445312 L 10.324219 -89.132812 L 10.324219 -84.230469 L 9.539062 -84.230469 C 9.988281 -84.230469 10.378906 -84.355469 10.710938 -84.609375 C 10.765625 -84.652344 10.800781 -84.683594 10.8125 -84.699219 C 10.757812 -84.625 10.6875 -84.511719 10.609375 -84.367188 C 9.976562 -83.160156 9.484375 -81.585938 9.136719 -79.644531 C 8.726562 -77.347656 8.421875 -75.03125 8.214844 -72.695312 C 8.007812 -70.308594 7.882812 -68.339844 7.839844 -66.785156 L 7.648438 -59.53125 L -3.855469 -59.53125 L -3.855469 -96.386719 Z M 1.046875 -86.582031 L 1.046875 -91.484375 L 5.945312 -91.484375 L 5.945312 -64.429688 L 1.046875 -64.429688 L 1.046875 -69.332031 L 2.875 -69.332031 L 2.875 -64.429688 L -2.023438 -64.558594 L -1.957031 -67.042969 C -1.914062 -68.796875 -1.777344 -70.96875 -1.550781 -73.550781 C -1.320312 -76.179688 -0.972656 -78.785156 -0.511719 -81.367188 C 0.0117188 -84.304688 0.828125 -86.828125 1.9375 -88.929688 C 2.710938 -90.402344 3.65625 -91.5625 4.777344 -92.414062 C 6.199219 -93.492188 7.785156 -94.03125 9.539062 -94.03125 L 12.167969 -94.03125 L 13.550781 -92.820312 C 14.761719 -91.761719 15.882812 -90.140625 16.914062 -87.957031 C 17.964844 -85.726562 18.492188 -82.675781 18.492188 -78.808594 L 18.492188 -12.675781 C 18.492188 -8.453125 17.859375 -5.171875 16.597656 -2.832031 C 15.300781 -0.433594 13.832031 1.257812 12.191406 2.242188 L 10.886719 3.027344 L 8.363281 -1.175781 L 13.265625 -1.175781 L 13.265625 0 L 8.363281 0 L 8.363281 -4.902344 L 26.53125 -4.902344 L 26.53125 0 L 21.628906 0 L 21.628906 -1.175781 L 26.53125 -1.175781 L 24.007812 3.027344 L 22.703125 2.242188 C 21.0625 1.257812 19.59375 -0.433594 18.296875 -2.832031 C 17.035156 -5.171875 16.402344 -8.453125 16.402344 -12.675781 L 16.402344 -78.808594 C 16.402344 -82.675781 16.929688 -85.726562 17.980469 -87.957031 C 19.011719 -90.140625 20.132812 -91.761719 21.34375 -92.820312 L 22.730469 -94.03125 L 25.355469 -94.03125 C 27.109375 -94.03125 28.695312 -93.492188 30.117188 -92.414062 C 31.238281 -91.5625 32.1875 -90.402344 32.957031 -88.929688 C 34.066406 -86.828125 34.882812 -84.304688 35.40625 -81.367188 C 35.867188 -78.785156 36.214844 -76.179688 36.445312 -73.550781 C 36.671875 -70.96875 36.808594 -68.796875 36.855469 -67.042969 L 36.917969 -64.558594 L 32.019531 -64.429688 L 32.019531 -69.332031 L 33.847656 -69.332031 L 33.847656 -64.429688 L 28.949219 -64.429688 L 28.949219 -91.484375 L 33.847656 -91.484375 L 33.847656 -86.582031 Z M 1.046875 -86.582031 "/></g></g></g><g fill="#ffffff" fill-opacity="1"><g transform="translate(128.987619, 98.5177)"><g><path d="M 36.722656 4.902344 L -3.855469 4.902344 L -3.855469 -4.203125 L -0.0078125 -6.320312 C -0.101562 -6.269531 -0.171875 -6.222656 -0.222656 -6.179688 C -0.199219 -6.199219 -0.160156 -6.242188 -0.105469 -6.308594 C 0.121094 -6.578125 0.375 -6.972656 0.65625 -7.492188 C 1.132812 -8.378906 1.371094 -10.105469 1.371094 -12.675781 L 1.371094 -78.808594 C 1.371094 -81.53125 1.140625 -83.308594 0.683594 -84.136719 C 0.414062 -84.625 0.171875 -84.988281 -0.0390625 -85.230469 C -0.078125 -85.277344 -0.105469 -85.304688 -0.113281 -85.3125 C -0.0429688 -85.253906 0.046875 -85.199219 0.160156 -85.140625 L -3.855469 -87.148438 L -3.855469 -96.386719 L 41.625 -96.386719 L 41.625 -59.53125 L 30.121094 -59.53125 L 29.929688 -66.785156 C 29.890625 -68.339844 29.765625 -70.308594 29.554688 -72.695312 C 29.351562 -75.03125 29.042969 -77.347656 28.632812 -79.644531 C 28.285156 -81.585938 27.792969 -83.160156 27.160156 -84.367188 C 27.082031 -84.511719 27.015625 -84.625 26.957031 -84.699219 C 26.96875 -84.683594 27.003906 -84.652344 27.0625 -84.609375 C 27.394531 -84.355469 27.78125 -84.230469 28.230469 -84.230469 L 14.507812 -84.230469 L 14.507812 -89.132812 L 19.40625 -89.132812 L 19.40625 -58.679688 L 14.507812 -58.679688 L 14.507812 -63.582031 L 25.222656 -63.582031 C 24.195312 -63.582031 23.382812 -63.230469 22.785156 -62.53125 C 22.734375 -62.472656 22.691406 -62.417969 22.660156 -62.367188 C 22.714844 -62.476562 22.773438 -62.632812 22.839844 -62.839844 C 23.308594 -64.324219 23.65625 -66.0625 23.882812 -68.054688 C 24.128906 -70.21875 24.269531 -72.121094 24.308594 -73.765625 L 24.492188 -81.226562 L 36.007812 -81.226562 L 36.007812 -33.785156 L 24.375 -33.785156 L 24.375 -38.683594 C 24.375 -39.34375 24.351562 -40.589844 24.308594 -42.425781 C 24.269531 -44.171875 24.148438 -46.046875 23.941406 -48.054688 C 23.765625 -49.773438 23.46875 -51.199219 23.046875 -52.335938 C 23.003906 -52.453125 22.96875 -52.535156 22.941406 -52.578125 C 22.988281 -52.496094 23.070312 -52.402344 23.179688 -52.289062 C 23.753906 -51.714844 24.480469 -51.425781 25.355469 -51.425781 L 14.507812 -51.425781 L 14.507812 -56.328125 L 19.40625 -56.328125 L 19.40625 -2.351562 L 14.507812 -2.351562 L 14.507812 -7.253906 L 28.230469 -7.253906 C 27.78125 -7.253906 27.394531 -7.128906 27.0625 -6.875 C 27.003906 -6.832031 26.96875 -6.800781 26.957031 -6.785156 C 27.015625 -6.859375 27.082031 -6.972656 27.160156 -7.117188 C 27.792969 -8.324219 28.285156 -9.898438 28.632812 -11.839844 C 29.042969 -14.136719 29.351562 -16.453125 29.554688 -18.789062 C 29.765625 -21.175781 29.890625 -23.144531 29.929688 -24.699219 L 30.121094 -31.953125 L 41.625 -31.953125 L 41.625 4.902344 Z M 36.722656 -4.902344 L 36.722656 0 L 31.824219 0 L 31.824219 -27.054688 L 36.722656 -27.054688 L 36.722656 -22.152344 L 34.894531 -22.152344 L 34.894531 -27.054688 L 39.792969 -26.925781 L 39.730469 -24.441406 C 39.683594 -22.6875 39.546875 -20.515625 39.320312 -17.933594 C 39.089844 -15.304688 38.742188 -12.699219 38.28125 -10.117188 C 37.757812 -7.179688 36.941406 -4.65625 35.832031 -2.554688 C 35.0625 -1.085938 34.113281 0.078125 32.992188 0.929688 C 31.570312 2.007812 29.984375 2.546875 28.230469 2.546875 L 9.605469 2.546875 L 9.605469 -61.230469 L 25.355469 -61.230469 C 27.1875 -61.230469 28.773438 -60.558594 30.109375 -59.222656 C 30.996094 -58.335938 31.703125 -57.179688 32.234375 -55.746094 C 32.949219 -53.832031 33.433594 -51.597656 33.695312 -49.050781 C 33.925781 -46.789062 34.0625 -44.65625 34.109375 -42.652344 C 34.152344 -40.742188 34.175781 -39.417969 34.175781 -38.683594 L 29.273438 -38.683594 L 29.273438 -43.585938 L 31.105469 -43.585938 L 31.105469 -38.683594 L 26.203125 -38.683594 L 26.203125 -76.324219 L 31.105469 -76.324219 L 31.105469 -71.421875 L 29.273438 -71.421875 L 29.273438 -76.324219 L 34.175781 -76.203125 L 34.109375 -73.527344 C 34.0625 -71.59375 33.898438 -69.402344 33.621094 -66.949219 C 33.324219 -64.324219 32.84375 -61.96875 32.183594 -59.878906 C 31.699219 -58.355469 31.050781 -57.117188 30.242188 -56.167969 C 28.882812 -54.574219 27.210938 -53.78125 25.222656 -53.78125 L 9.605469 -53.78125 L 9.605469 -94.03125 L 28.230469 -94.03125 C 29.984375 -94.03125 31.570312 -93.492188 32.992188 -92.414062 C 34.113281 -91.5625 35.0625 -90.402344 35.832031 -88.929688 C 36.941406 -86.828125 37.757812 -84.304688 38.28125 -81.367188 C 38.742188 -78.785156 39.089844 -76.179688 39.320312 -73.550781 C 39.546875 -70.96875 39.683594 -68.796875 39.730469 -67.042969 L 39.792969 -64.558594 L 34.894531 -64.429688 L 34.894531 -69.332031 L 36.722656 -69.332031 L 36.722656 -64.429688 L 31.824219 -64.429688 L 31.824219 -91.484375 L 36.722656 -91.484375 L 36.722656 -86.582031 L 1.046875 -86.582031 L 1.046875 -91.484375 L 5.945312 -91.484375 L 5.945312 -90.175781 L 1.046875 -90.175781 L 3.238281 -94.5625 L 4.542969 -93.90625 C 6.320312 -93.019531 7.886719 -91.351562 9.25 -88.898438 C 10.53125 -86.589844 11.175781 -83.226562 11.175781 -78.808594 L 11.175781 -12.675781 C 11.175781 -8.453125 10.542969 -5.171875 9.277344 -2.832031 C 7.949219 -0.375 6.429688 1.324219 4.714844 2.269531 L 3.40625 2.988281 L 1.046875 -1.308594 L 5.945312 -1.308594 L 5.945312 0 L 1.046875 0 L 1.046875 -4.902344 Z M 36.722656 -4.902344 "/></g></g></g><g fill="#5170ff" fill-opacity="1"><g transform="translate(5.233895, 98.5177)"><g><path d="M 15.15625 -61.15625 L 28.484375 -47.96875 C 32.234375 -44.65625 35 -40.773438 36.78125 -36.328125 C 38.570312 -31.890625 39.46875 -27.488281 39.46875 -23.125 C 39.46875 -18.863281 38.679688 -14.878906 37.109375 -11.171875 C 35.546875 -7.472656 33.21875 -4.488281 30.125 -2.21875 C 27.03125 0.0390625 23.175781 1.171875 18.5625 1.171875 C 15.332031 1.171875 12.5625 0.210938 10.25 -1.703125 C 7.945312 -3.617188 6.054688 -5.707031 4.578125 -7.96875 L 4.3125 -8.234375 C 4.226562 -8.410156 4.160156 -8.539062 4.109375 -8.625 C 4.066406 -8.707031 4.046875 -8.75 4.046875 -8.75 C 3.785156 -8.75 3.566406 -8.3125 3.390625 -7.4375 C 3.222656 -6.570312 3.113281 -5.550781 3.0625 -4.375 C 3.019531 -3.195312 2.976562 -2.171875 2.9375 -1.296875 C 2.894531 -0.429688 2.875 0 2.875 0 L 1.046875 0 L 1.046875 -35.671875 L 3.53125 -35.671875 L 3.53125 -35.546875 C 3.53125 -35.203125 3.59375 -33.804688 3.71875 -31.359375 C 3.851562 -28.921875 4.140625 -26.046875 4.578125 -22.734375 C 5.015625 -19.429688 5.773438 -16.125 6.859375 -12.8125 C 7.953125 -9.5 9.429688 -6.753906 11.296875 -4.578125 C 13.171875 -2.398438 15.59375 -1.3125 18.5625 -1.3125 C 21.78125 -1.3125 24.609375 -2.851562 27.046875 -5.9375 C 29.492188 -9.03125 30.71875 -14.148438 30.71875 -21.296875 C 30.71875 -25.128906 30.257812 -28.242188 29.34375 -30.640625 C 28.425781 -33.035156 27.3125 -34.972656 26 -36.453125 C 24.695312 -37.941406 23.4375 -39.207031 22.21875 -40.25 C 21.957031 -40.507812 21.695312 -40.75 21.4375 -40.96875 C 21.175781 -41.1875 20.914062 -41.425781 20.65625 -41.6875 L 10.84375 -51.484375 C 8.0625 -54.015625 5.972656 -57.039062 4.578125 -60.5625 C 3.179688 -64.09375 2.484375 -67.601562 2.484375 -71.09375 C 2.484375 -74.75 3.15625 -78.164062 4.5 -81.34375 C 5.851562 -84.53125 7.859375 -87.125 10.515625 -89.125 C 13.171875 -91.132812 16.460938 -92.140625 20.390625 -92.140625 C 23.609375 -92.140625 26.328125 -91.203125 28.546875 -89.328125 C 30.773438 -87.453125 32.585938 -85.382812 33.984375 -83.125 C 34.148438 -82.851562 34.273438 -82.648438 34.359375 -82.515625 C 34.453125 -82.390625 34.5 -82.328125 34.5 -82.328125 C 34.757812 -82.328125 34.976562 -82.765625 35.15625 -83.640625 C 35.332031 -84.515625 35.441406 -85.535156 35.484375 -86.703125 C 35.523438 -87.878906 35.566406 -88.90625 35.609375 -89.78125 C 35.648438 -90.65625 35.671875 -91.09375 35.671875 -91.09375 L 37.5 -91.09375 L 37.5 -55.28125 L 35.03125 -55.28125 L 35.03125 -55.546875 C 35.03125 -56.066406 34.960938 -57.566406 34.828125 -60.046875 C 34.691406 -62.535156 34.40625 -65.429688 33.96875 -68.734375 C 33.539062 -72.046875 32.800781 -75.289062 31.75 -78.46875 C 30.707031 -81.65625 29.269531 -84.316406 27.4375 -86.453125 C 25.613281 -88.585938 23.265625 -89.65625 20.390625 -89.65625 C 17.773438 -89.65625 15.507812 -88.148438 13.59375 -85.140625 C 11.675781 -82.140625 10.71875 -78.457031 10.71875 -74.09375 C 10.71875 -70.519531 11.21875 -67.707031 12.21875 -65.65625 C 13.21875 -63.613281 14.195312 -62.113281 15.15625 -61.15625 Z M 15.15625 -61.15625 "/></g></g></g><g fill="#5170ff" fill-opacity="1"><g transform="translate(46.136722, 98.5177)"><g><path d="M 24.5625 0.921875 C 20.46875 0.921875 17.003906 -0.164062 14.171875 -2.34375 C 11.347656 -4.53125 9.0625 -7.382812 7.3125 -10.90625 C 5.570312 -14.4375 4.242188 -18.269531 3.328125 -22.40625 C 2.410156 -26.550781 1.800781 -30.625 1.5 -34.625 C 1.195312 -38.632812 1.046875 -42.164062 1.046875 -45.21875 C 1.046875 -48.269531 1.195312 -51.820312 1.5 -55.875 C 1.800781 -59.925781 2.410156 -64.082031 3.328125 -68.34375 C 4.242188 -72.613281 5.570312 -76.554688 7.3125 -80.171875 C 9.0625 -83.785156 11.328125 -86.722656 14.109375 -88.984375 C 16.898438 -91.253906 20.382812 -92.390625 24.5625 -92.390625 C 28.664062 -92.390625 32.109375 -91.253906 34.890625 -88.984375 C 37.679688 -86.722656 39.945312 -83.765625 41.6875 -80.109375 C 43.425781 -76.453125 44.753906 -72.507812 45.671875 -68.28125 C 46.585938 -64.0625 47.21875 -59.925781 47.5625 -55.875 C 47.914062 -51.820312 48.09375 -48.269531 48.09375 -45.21875 C 48.09375 -42.164062 47.9375 -38.632812 47.625 -34.625 C 47.320312 -30.625 46.710938 -26.550781 45.796875 -22.40625 C 44.890625 -18.269531 43.5625 -14.4375 41.8125 -10.90625 C 40.070312 -7.382812 37.785156 -4.53125 34.953125 -2.34375 C 32.128906 -0.164062 28.664062 0.921875 24.5625 0.921875 Z M 24.5625 -1.4375 C 27.007812 -1.4375 29.054688 -2.347656 30.703125 -4.171875 C 32.359375 -6.003906 33.734375 -8.378906 34.828125 -11.296875 C 35.921875 -14.222656 36.769531 -17.382812 37.375 -20.78125 C 37.988281 -24.175781 38.445312 -27.503906 38.75 -30.765625 C 39.050781 -34.035156 39.242188 -36.929688 39.328125 -39.453125 C 39.421875 -41.984375 39.46875 -43.773438 39.46875 -44.828125 C 39.46875 -47.785156 39.335938 -51.203125 39.078125 -55.078125 C 38.816406 -58.960938 38.378906 -62.953125 37.765625 -67.046875 C 37.160156 -71.140625 36.289062 -74.925781 35.15625 -78.40625 C 34.019531 -81.894531 32.582031 -84.707031 30.84375 -86.84375 C 29.101562 -88.976562 27.007812 -90.046875 24.5625 -90.046875 C 21.601562 -90.046875 19.1875 -88.78125 17.3125 -86.25 C 15.4375 -83.726562 13.976562 -80.503906 12.9375 -76.578125 C 11.894531 -72.660156 11.132812 -68.546875 10.65625 -64.234375 C 10.175781 -59.921875 9.867188 -55.890625 9.734375 -52.140625 C 9.609375 -48.398438 9.546875 -45.484375 9.546875 -43.390625 C 9.546875 -41.554688 9.628906 -38.960938 9.796875 -35.609375 C 9.972656 -32.253906 10.320312 -28.640625 10.84375 -24.765625 C 11.363281 -20.890625 12.164062 -17.164062 13.25 -13.59375 C 14.34375 -10.019531 15.804688 -7.097656 17.640625 -4.828125 C 19.472656 -2.566406 21.78125 -1.4375 24.5625 -1.4375 Z M 24.5625 -1.4375 "/></g></g></g><g fill="#5170ff" fill-opacity="1"><g transform="translate(94.096104, 98.5177)"><g><path d="M 1.046875 -91.484375 L 33.84375 -91.484375 L 33.84375 -64.421875 L 32.015625 -64.421875 C 32.015625 -64.421875 31.992188 -65.25 31.953125 -66.90625 C 31.910156 -68.5625 31.78125 -70.628906 31.5625 -73.109375 C 31.34375 -75.597656 31.015625 -78.0625 30.578125 -80.5 C 30.140625 -82.9375 29.484375 -84.984375 28.609375 -86.640625 C 27.742188 -88.296875 26.660156 -89.125 25.359375 -89.125 L 24.5625 -89.125 C 23.875 -88.519531 23.15625 -87.429688 22.40625 -85.859375 C 21.664062 -84.296875 21.296875 -81.941406 21.296875 -78.796875 L 21.296875 -12.671875 C 21.296875 -9.273438 21.734375 -6.769531 22.609375 -5.15625 C 23.484375 -3.550781 24.351562 -2.484375 25.21875 -1.953125 C 26.09375 -1.429688 26.53125 -1.171875 26.53125 -1.171875 L 26.53125 0 L 8.359375 0 L 8.359375 -1.171875 C 8.359375 -1.171875 8.796875 -1.429688 9.671875 -1.953125 C 10.546875 -2.484375 11.414062 -3.550781 12.28125 -5.15625 C 13.15625 -6.769531 13.59375 -9.273438 13.59375 -12.671875 L 13.59375 -78.796875 C 13.59375 -81.941406 13.222656 -84.296875 12.484375 -85.859375 C 11.742188 -87.429688 11.023438 -88.519531 10.328125 -89.125 L 9.546875 -89.125 C 8.234375 -89.125 7.140625 -88.296875 6.265625 -86.640625 C 5.398438 -84.984375 4.75 -82.9375 4.3125 -80.5 C 3.875 -78.0625 3.546875 -75.597656 3.328125 -73.109375 C 3.109375 -70.628906 2.976562 -68.5625 2.9375 -66.90625 C 2.894531 -65.25 2.875 -64.421875 2.875 -64.421875 L 1.046875 -64.421875 Z M 1.046875 -91.484375 "/></g></g></g><g fill="#5170ff" fill-opacity="1"><g transform="translate(128.987619, 98.5177)"><g><path d="M 36.71875 0 L 1.046875 0 L 1.046875 -1.3125 C 1.046875 -1.3125 1.476562 -1.550781 2.34375 -2.03125 C 3.21875 -2.507812 4.085938 -3.550781 4.953125 -5.15625 C 5.828125 -6.769531 6.265625 -9.273438 6.265625 -12.671875 L 6.265625 -78.796875 C 6.265625 -82.367188 5.828125 -84.941406 4.953125 -86.515625 C 4.085938 -88.085938 3.21875 -89.085938 2.34375 -89.515625 C 1.476562 -89.953125 1.046875 -90.171875 1.046875 -90.171875 L 1.046875 -91.484375 L 36.71875 -91.484375 L 36.71875 -64.421875 L 34.890625 -64.421875 C 34.890625 -64.421875 34.867188 -65.25 34.828125 -66.90625 C 34.785156 -68.5625 34.65625 -70.628906 34.4375 -73.109375 C 34.21875 -75.597656 33.890625 -78.0625 33.453125 -80.5 C 33.015625 -82.9375 32.359375 -84.984375 31.484375 -86.640625 C 30.617188 -88.296875 29.535156 -89.125 28.234375 -89.125 L 14.5 -89.125 L 14.5 -58.671875 L 25.21875 -58.671875 C 26.175781 -58.671875 26.9375 -59.5625 27.5 -61.34375 C 28.070312 -63.132812 28.488281 -65.1875 28.75 -67.5 C 29.007812 -69.8125 29.160156 -71.859375 29.203125 -73.640625 C 29.253906 -75.429688 29.28125 -76.328125 29.28125 -76.328125 L 31.109375 -76.328125 L 31.109375 -38.6875 L 29.28125 -38.6875 C 29.28125 -39.382812 29.253906 -40.664062 29.203125 -42.53125 C 29.160156 -44.40625 29.03125 -46.410156 28.8125 -48.546875 C 28.59375 -50.679688 28.203125 -52.507812 27.640625 -54.03125 C 27.078125 -55.5625 26.316406 -56.328125 25.359375 -56.328125 L 14.5 -56.328125 L 14.5 -2.359375 L 28.234375 -2.359375 C 29.535156 -2.359375 30.617188 -3.179688 31.484375 -4.828125 C 32.359375 -6.484375 33.015625 -8.53125 33.453125 -10.96875 C 33.890625 -13.414062 34.21875 -15.878906 34.4375 -18.359375 C 34.65625 -20.847656 34.785156 -22.914062 34.828125 -24.5625 C 34.867188 -26.21875 34.890625 -27.046875 34.890625 -27.046875 L 36.71875 -27.046875 Z M 36.71875 0 "/></g></g></g></g></g></svg>